<?xml version="1.0" encoding="UTF-8" standalone="no"?>
<!-- Created with Inkscape (http://www.inkscape.org/) -->
<svg
   xmlns:svg="http://www.w3.org/2000/svg"
   xmlns="http://www.w3.org/2000/svg"
   version="1.0"
   width="1133.8583"
   height="272.83463"
   id="svg2">
  <defs
     id="defs4">
    <clipPath
       id="clipPath2496">
      <path
         d="M 603.071,72.892 L 611.768,72.892 L 611.768,28.347 L 603.071,28.347 L 603.071,72.892 z"
         id="path2498" />
    </clipPath>
    <clipPath
       id="clipPath2488">
      <path
         d="M 603.071,72.892 L 611.768,72.892 L 611.768,28.347 L 603.071,28.347 L 603.071,72.892 z"
         id="path2490" />
    </clipPath>
    <clipPath
       id="clipPath2480">
      <path
         d="M 603.071,28.346 L 611.575,28.346 L 611.575,72.891 L 603.071,72.891 L 603.071,28.346 z"
         id="path2482" />
    </clipPath>
    <clipPath
       id="clipPath2438">
      <path
         d="M 0,0 L 1214.646,0 L 1214.646,779.528 L 0,779.528 L 0,0 z"
         id="path2440" />
    </clipPath>
  </defs>
  <g
     transform="translate(119.91608,-293.58229)"
     id="layer1">
    <g
       transform="translate(35.433093,35.426857)"
       id="g2766">
      <path
         d="M 52.156894,493.69536 L 26.281784,433.16297 L -19.436146,433.16297 L 9.6166143,370.94573 L 65.173024,493.69536 L 143.26976,493.69536 L 43.104104,293.58229 L -25.468436,293.58229 L -119.91608,493.69536 L 52.156894,493.69536 z"
         id="path2462"
         style="fill:#006db0;fill-opacity:1;fill-rule:nonzero;stroke:none" />
      <path
         d="M 574.18111,293.58229 L 574.18111,352.9187 L 654.22461,352.9187 L 654.22461,495.43259 L 719.47111,495.43259 L 719.47111,353.16314 L 749.04761,353.16314 L 774.46011,293.58229 L 574.18111,293.58229 z"
         id="path2466"
         style="fill:#006db0;fill-opacity:1;fill-rule:nonzero;stroke:none" />
      <path
         d="M 793.51721,293.58229 L 766.88261,353.16314 L 794.73941,353.16314 L 730.47061,495.43259 L 943.07601,495.43259 L 914.73041,434.78671 L 832.37351,434.78671 L 888.34021,293.58229 L 793.51721,293.58229 z"
         id="path2470"
         style="fill:#006db0;fill-opacity:1;fill-rule:nonzero;stroke:none" />
      <path
         d="M 95.936814,373.64323 L 95.936814,293.58229 L 157.47313,293.58229 L 216.83573,383.61266 L 216.83573,293.58229 L 280.86877,293.58229 C 366.70884,293.58229 395.52589,352.62189 395.52589,352.62189 L 395.52589,293.58229 L 493.88448,293.58229 C 522.18651,293.58229 556.45091,302.18987 564.53471,345.11426 C 572.40021,386.89506 532.76701,401.32541 532.76701,401.32541 L 574.18111,459.073 L 574.18111,365.33247 L 639.60221,365.33247 L 639.60221,495.43259 L 515.44711,495.43259 L 462.12549,400.55719 L 462.12549,495.43259 L 395.52589,495.43259 L 395.52589,435.58985 C 359.52422,501.22918 290.03506,495.43259 290.03506,495.43259 L 290.03506,435.20574 C 290.03506,435.20574 336.42518,433.66057 336.42518,392.08929 C 336.42518,350.50928 280.41482,353.39884 280.41482,353.39884 L 280.41482,495.43259 L 214.19934,495.43259 L 160.10953,405.75142 L 160.10953,493.69536 L 154.52246,493.69536 L 95.936814,373.64323 z M 461.78503,386.40619 C 472.66235,390.92822 500.14375,386.88633 500.14375,365.90863 C 500.14375,344.92221 461.78503,350.70133 461.78503,350.70133 L 461.78503,386.40619 z"
         id="path2474"
         style="fill:#006db0;fill-opacity:1;fill-rule:nonzero;stroke:none" />
    </g>
  </g>
</svg>
